<?xml version="1.0" encoding="UTF-8" standalone="no"?>
<!-- Created with Inkscape (http://www.inkscape.org/) -->

<svg
   xmlns:dc="http://purl.org/dc/elements/1.1/"
   xmlns:cc="http://creativecommons.org/ns#"
   xmlns:rdf="http://www.w3.org/1999/02/22-rdf-syntax-ns#"
   xmlns:svg="http://www.w3.org/2000/svg"
   xmlns="http://www.w3.org/2000/svg"
   xmlns:sodipodi="http://sodipodi.sourceforge.net/DTD/sodipodi-0.dtd"
   xmlns:inkscape="http://www.inkscape.org/namespaces/inkscape"
   width="217.33055"
   height="168.30972"
   id="svg2"
   version="1.1"
   inkscape:version="0.48.5 r10040"
   sodipodi:docname="perceptron.svg"
   inkscape:export-filename="/home/francescomannella/Dropbox/Projects/neunet-basics/course/perceptron.png"
   inkscape:export-xdpi="124.24996"
   inkscape:export-ydpi="124.24996">
  <sodipodi:namedview
     id="base"
     pagecolor="#ffffff"
     bordercolor="#666666"
     borderopacity="1.0"
     inkscape:pageopacity="0.0"
     inkscape:pageshadow="2"
     inkscape:zoom="1.4437668"
     inkscape:cx="213.38091"
     inkscape:cy="125.16781"
     inkscape:document-units="px"
     inkscape:current-layer="layer1"
     showgrid="false"
     showguides="true"
     inkscape:guide-bbox="true"
     inkscape:window-width="1920"
     inkscape:window-height="1149"
     inkscape:window-x="0"
     inkscape:window-y="26"
     inkscape:window-maximized="1"
     fit-margin-top="0"
     fit-margin-left="0"
     fit-margin-right="0"
     fit-margin-bottom="0" />
  <defs
     id="defs4">
    <marker
       inkscape:stockid="Arrow1Mend"
       orient="auto"
       refY="0"
       refX="0"
       id="Arrow1Mend"
       style="overflow:visible">
      <path
         id="path3980"
         d="M 0,0 5,-5 -12.5,0 5,5 0,0 z"
         style="fill-rule:evenodd;stroke:#000000;stroke-width:1pt"
         transform="matrix(-0.4,0,0,-0.4,-4,0)"
         inkscape:connector-curvature="0" />
    </marker>
    <marker
       inkscape:stockid="Arrow2Mend"
       orient="auto"
       refY="0"
       refX="0"
       id="Arrow2Mend"
       style="overflow:visible">
      <path
         id="path3998"
         style="fill-rule:evenodd;stroke-width:0.625;stroke-linejoin:round"
         d="M 8.7185878,4.0337352 -2.2072895,0.01601326 8.7185884,-4.0017078 c -1.7454984,2.3720609 -1.7354408,5.6174519 -6e-7,8.035443 z"
         transform="scale(-0.6,-0.6)"
         inkscape:connector-curvature="0" />
    </marker>
    <marker
       inkscape:stockid="Arrow2Mstart"
       orient="auto"
       refY="0"
       refX="0"
       id="Arrow2Mstart"
       style="overflow:visible">
      <path
         id="path3995"
         style="fill-rule:evenodd;stroke-width:0.625;stroke-linejoin:round"
         d="M 8.7185878,4.0337352 -2.2072895,0.01601326 8.7185884,-4.0017078 c -1.7454984,2.3720609 -1.7354408,5.6174519 -6e-7,8.035443 z"
         transform="scale(0.6,0.6)"
         inkscape:connector-curvature="0" />
    </marker>
    <marker
       inkscape:stockid="Arrow2MstartZ"
       orient="auto"
       refY="0"
       refX="0"
       id="Arrow2MstartZ"
       style="overflow:visible">
      <path
         id="path5080"
         style="fill:#ffffff;fill-rule:evenodd;stroke:#ffffff;stroke-width:0.625;stroke-linejoin:round"
         d="M 8.7185878,4.0337352 -2.2072895,0.01601326 8.7185884,-4.0017078 c -1.7454984,2.3720609 -1.7354408,5.6174519 -6e-7,8.035443 z"
         transform="scale(0.6,0.6)"
         inkscape:connector-curvature="0" />
    </marker>
    <marker
       inkscape:stockid="Arrow2MendA"
       orient="auto"
       refY="0"
       refX="0"
       id="Arrow2MendA"
       style="overflow:visible">
      <path
         id="path5083"
         style="fill:#ffffff;fill-rule:evenodd;stroke:#ffffff;stroke-width:0.625;stroke-linejoin:round"
         d="M 8.7185878,4.0337352 -2.2072895,0.01601326 8.7185884,-4.0017078 c -1.7454984,2.3720609 -1.7354408,5.6174519 -6e-7,8.035443 z"
         transform="scale(-0.6,-0.6)"
         inkscape:connector-curvature="0" />
    </marker>
    <marker
       inkscape:stockid="Arrow2MstartY"
       orient="auto"
       refY="0"
       refX="0"
       id="Arrow2MstartY"
       style="overflow:visible">
      <path
         id="path5282"
         style="fill:#ffffff;fill-rule:evenodd;stroke:#ffffff;stroke-width:0.625;stroke-linejoin:round"
         d="M 8.7185878,4.0337352 -2.2072895,0.01601326 8.7185884,-4.0017078 c -1.7454984,2.3720609 -1.7354408,5.6174519 -6e-7,8.035443 z"
         transform="scale(0.6,0.6)"
         inkscape:connector-curvature="0" />
    </marker>
    <marker
       inkscape:stockid="Arrow2MendI"
       orient="auto"
       refY="0"
       refX="0"
       id="Arrow2MendI"
       style="overflow:visible">
      <path
         id="path5285"
         style="fill:#ffffff;fill-rule:evenodd;stroke:#ffffff;stroke-width:0.625;stroke-linejoin:round"
         d="M 8.7185878,4.0337352 -2.2072895,0.01601326 8.7185884,-4.0017078 c -1.7454984,2.3720609 -1.7354408,5.6174519 -6e-7,8.035443 z"
         transform="scale(-0.6,-0.6)"
         inkscape:connector-curvature="0" />
    </marker>
    <marker
       inkscape:stockid="Arrow2MstartX"
       orient="auto"
       refY="0"
       refX="0"
       id="Arrow2MstartX"
       style="overflow:visible">
      <path
         id="path5492"
         style="fill:#ffffff;fill-rule:evenodd;stroke:#ffffff;stroke-width:0.625;stroke-linejoin:round"
         d="M 8.7185878,4.0337352 -2.2072895,0.01601326 8.7185884,-4.0017078 c -1.7454984,2.3720609 -1.7354408,5.6174519 -6e-7,8.035443 z"
         transform="scale(0.6,0.6)"
         inkscape:connector-curvature="0" />
    </marker>
    <marker
       inkscape:stockid="Arrow2Mendn"
       orient="auto"
       refY="0"
       refX="0"
       id="Arrow2Mendn"
       style="overflow:visible">
      <path
         id="path5495"
         style="fill:#ffffff;fill-rule:evenodd;stroke:#ffffff;stroke-width:0.625;stroke-linejoin:round"
         d="M 8.7185878,4.0337352 -2.2072895,0.01601326 8.7185884,-4.0017078 c -1.7454984,2.3720609 -1.7354408,5.6174519 -6e-7,8.035443 z"
         transform="scale(-0.6,-0.6)"
         inkscape:connector-curvature="0" />
    </marker>
    <marker
       inkscape:stockid="Arrow2MstartYk"
       orient="auto"
       refY="0"
       refX="0"
       id="Arrow2MstartYk"
       style="overflow:visible">
      <path
         id="path5712"
         style="fill:#ffffff;fill-rule:evenodd;stroke:#ffffff;stroke-width:0.625;stroke-linejoin:round"
         d="M 8.7185878,4.0337352 -2.2072895,0.01601326 8.7185884,-4.0017078 c -1.7454984,2.3720609 -1.7354408,5.6174519 -6e-7,8.035443 z"
         transform="scale(0.6,0.6)"
         inkscape:connector-curvature="0" />
    </marker>
    <marker
       inkscape:stockid="Arrow2MendV"
       orient="auto"
       refY="0"
       refX="0"
       id="Arrow2MendV"
       style="overflow:visible">
      <path
         id="path5715"
         style="fill:#ffffff;fill-rule:evenodd;stroke:#ffffff;stroke-width:0.625;stroke-linejoin:round"
         d="M 8.7185878,4.0337352 -2.2072895,0.01601326 8.7185884,-4.0017078 c -1.7454984,2.3720609 -1.7354408,5.6174519 -6e-7,8.035443 z"
         transform="scale(-0.6,-0.6)"
         inkscape:connector-curvature="0" />
    </marker>
    <marker
       inkscape:stockid="Arrow2MstartYkv"
       orient="auto"
       refY="0"
       refX="0"
       id="Arrow2MstartYkv"
       style="overflow:visible">
      <path
         id="path5940"
         style="fill:#ff0000;fill-rule:evenodd;stroke:#ff0000;stroke-width:0.625;stroke-linejoin:round"
         d="M 8.7185878,4.0337352 -2.2072895,0.01601326 8.7185884,-4.0017078 c -1.7454984,2.3720609 -1.7354408,5.6174519 -6e-7,8.035443 z"
         transform="scale(0.6,0.6)"
         inkscape:connector-curvature="0" />
    </marker>
    <marker
       inkscape:stockid="Arrow2MendVx"
       orient="auto"
       refY="0"
       refX="0"
       id="Arrow2MendVx"
       style="overflow:visible">
      <path
         id="path5943"
         style="fill:#ff0000;fill-rule:evenodd;stroke:#ff0000;stroke-width:0.625;stroke-linejoin:round"
         d="M 8.7185878,4.0337352 -2.2072895,0.01601326 8.7185884,-4.0017078 c -1.7454984,2.3720609 -1.7354408,5.6174519 -6e-7,8.035443 z"
         transform="scale(-0.6,-0.6)"
         inkscape:connector-curvature="0" />
    </marker>
    <marker
       inkscape:stockid="Arrow2MstartXH"
       orient="auto"
       refY="0"
       refX="0"
       id="Arrow2MstartXH"
       style="overflow:visible">
      <path
         id="path6219"
         style="fill:#ff0000;fill-rule:evenodd;stroke:#ff0000;stroke-width:0.625;stroke-linejoin:round"
         d="M 8.7185878,4.0337352 -2.2072895,0.01601326 8.7185884,-4.0017078 c -1.7454984,2.3720609 -1.7354408,5.6174519 -6e-7,8.035443 z"
         transform="scale(0.6,0.6)"
         inkscape:connector-curvature="0" />
    </marker>
    <marker
       inkscape:stockid="Arrow2Mendne"
       orient="auto"
       refY="0"
       refX="0"
       id="Arrow2Mendne"
       style="overflow:visible">
      <path
         id="path6222"
         style="fill:#ff0000;fill-rule:evenodd;stroke:#ff0000;stroke-width:0.625;stroke-linejoin:round"
         d="M 8.7185878,4.0337352 -2.2072895,0.01601326 8.7185884,-4.0017078 c -1.7454984,2.3720609 -1.7354408,5.6174519 -6e-7,8.035443 z"
         transform="scale(-0.6,-0.6)"
         inkscape:connector-curvature="0" />
    </marker>
    <marker
       inkscape:stockid="Arrow2MstartYx"
       orient="auto"
       refY="0"
       refX="0"
       id="Arrow2MstartYx"
       style="overflow:visible">
      <path
         id="path6463"
         style="fill:#ff0000;fill-rule:evenodd;stroke:#ff0000;stroke-width:0.625;stroke-linejoin:round"
         d="M 8.7185878,4.0337352 -2.2072895,0.01601326 8.7185884,-4.0017078 c -1.7454984,2.3720609 -1.7354408,5.6174519 -6e-7,8.035443 z"
         transform="scale(0.6,0.6)"
         inkscape:connector-curvature="0" />
    </marker>
    <marker
       inkscape:stockid="Arrow2MendI8"
       orient="auto"
       refY="0"
       refX="0"
       id="Arrow2MendI8"
       style="overflow:visible">
      <path
         id="path6466"
         style="fill:#ff0000;fill-rule:evenodd;stroke:#ff0000;stroke-width:0.625;stroke-linejoin:round"
         d="M 8.7185878,4.0337352 -2.2072895,0.01601326 8.7185884,-4.0017078 c -1.7454984,2.3720609 -1.7354408,5.6174519 -6e-7,8.035443 z"
         transform="scale(-0.6,-0.6)"
         inkscape:connector-curvature="0" />
    </marker>
    <marker
       inkscape:stockid="Arrow2MstartZS"
       orient="auto"
       refY="0"
       refX="0"
       id="Arrow2MstartZS"
       style="overflow:visible">
      <path
         id="path6715"
         style="fill:#ff0000;fill-rule:evenodd;stroke:#ff0000;stroke-width:0.625;stroke-linejoin:round"
         d="M 8.7185878,4.0337352 -2.2072895,0.01601326 8.7185884,-4.0017078 c -1.7454984,2.3720609 -1.7354408,5.6174519 -6e-7,8.035443 z"
         transform="scale(0.6,0.6)"
         inkscape:connector-curvature="0" />
    </marker>
    <marker
       inkscape:stockid="Arrow2MendA0"
       orient="auto"
       refY="0"
       refX="0"
       id="Arrow2MendA0"
       style="overflow:visible">
      <path
         id="path6718"
         style="fill:#ff0000;fill-rule:evenodd;stroke:#ff0000;stroke-width:0.625;stroke-linejoin:round"
         d="M 8.7185878,4.0337352 -2.2072895,0.01601326 8.7185884,-4.0017078 c -1.7454984,2.3720609 -1.7354408,5.6174519 -6e-7,8.035443 z"
         transform="scale(-0.6,-0.6)"
         inkscape:connector-curvature="0" />
    </marker>
  </defs>
  <metadata
     id="metadata7">
    <rdf:RDF>
      <cc:Work
         rdf:about="">
        <dc:format>image/svg+xml</dc:format>
        <dc:type
           rdf:resource="http://purl.org/dc/dcmitype/StillImage" />
        <dc:title></dc:title>
      </cc:Work>
    </rdf:RDF>
  </metadata>
  <g
     inkscape:label="Layer 1"
     inkscape:groupmode="layer"
     id="layer1"
     transform="translate(-200.11265,-279.81438)">
    <path
       sodipodi:type="arc"
       style="color:#000000;fill:#d2c700;fill-opacity:1;stroke:#000000;stroke-width:2;stroke-linecap:square;stroke-linejoin:round;stroke-miterlimit:4;stroke-opacity:1;stroke-dasharray:none;stroke-dashoffset:0;marker:none;visibility:visible;display:inline;overflow:visible;enable-background:accumulate"
       id="path3755"
       sodipodi:cx="72.773613"
       sodipodi:cy="414.17743"
       sodipodi:rx="18.665279"
       sodipodi:ry="18.665279"
       d="m 91.438892,414.17743 c 0,10.30855 -8.35673,18.66528 -18.665279,18.66528 -10.308549,0 -18.665279,-8.35673 -18.665279,-18.66528 0,-10.30855 8.35673,-18.66528 18.665279,-18.66528 10.308549,0 18.665279,8.35673 18.665279,18.66528 z"
       transform="translate(325.00431,14.281394)" />
    <path
       transform="matrix(-1,0,0,1,337.05154,14.281394)"
       d="m 91.438892,414.17743 c 0,10.30855 -8.35673,18.66528 -18.665279,18.66528 -10.308549,0 -18.665279,-8.35673 -18.665279,-18.66528 0,-10.30855 8.35673,-18.66528 18.665279,-18.66528 10.308549,0 18.665279,8.35673 18.665279,18.66528 z"
       sodipodi:ry="18.665279"
       sodipodi:rx="18.665279"
       sodipodi:cy="414.17743"
       sodipodi:cx="72.773613"
       id="path3779"
       style="color:#000000;fill:#d2c700;fill-opacity:1;stroke:#000000;stroke-width:2;stroke-linecap:square;stroke-linejoin:round;stroke-miterlimit:4;stroke-opacity:1;stroke-dasharray:none;stroke-dashoffset:0;marker:none;visibility:visible;display:inline;overflow:visible;enable-background:accumulate"
       sodipodi:type="arc" />
    <path
       sodipodi:nodetypes="cc"
       style="fill:none;stroke:#000000;stroke-width:2.5;stroke-linecap:butt;stroke-linejoin:miter;stroke-miterlimit:4;stroke-opacity:1;stroke-dasharray:none;marker-start:url(#Arrow2Mstart);marker-mid:none;marker-end:none"
       d="m 296.28798,314.22243 -69.62134,96.41841"
       id="path4623"
       inkscape:connector-curvature="0" />
    <path
       transform="matrix(-1,0,0,1,292.55154,14.281394)"
       d="m 91.438892,414.17743 c 0,10.30855 -8.35673,18.66528 -18.665279,18.66528 -10.308549,0 -18.665279,-8.35673 -18.665279,-18.66528 0,-10.30855 8.35673,-18.66528 18.665279,-18.66528 10.308549,0 18.665279,8.35673 18.665279,18.66528 z"
       sodipodi:ry="18.665279"
       sodipodi:rx="18.665279"
       sodipodi:cy="414.17743"
       sodipodi:cx="72.773613"
       id="path3773"
       style="color:#000000;fill:#d2c700;fill-opacity:1;stroke:#000000;stroke-width:2;stroke-linecap:square;stroke-linejoin:round;stroke-miterlimit:4;stroke-opacity:1;stroke-dasharray:none;stroke-dashoffset:0;marker:none;visibility:visible;display:inline;overflow:visible;enable-background:accumulate"
       sodipodi:type="arc" />
    <path
       inkscape:connector-curvature="0"
       id="path4720"
       d="m 302.21185,317.26589 -36.19767,92.50539"
       style="fill:none;stroke:#000000;stroke-width:2.5;stroke-linecap:butt;stroke-linejoin:miter;stroke-miterlimit:4;stroke-opacity:1;stroke-dasharray:none;marker-start:url(#Arrow2Mstart);marker-mid:none;marker-end:none"
       sodipodi:nodetypes="cc" />
    <path
       sodipodi:nodetypes="cc"
       style="fill:none;stroke:#000000;stroke-width:2.5;stroke-linecap:butt;stroke-linejoin:miter;stroke-miterlimit:4;stroke-opacity:1;stroke-dasharray:none;marker-start:url(#Arrow2Mstart);marker-mid:none;marker-end:none"
       d="m 319.98346,314.22243 78.20366,94.89668"
       id="path4726"
       inkscape:connector-curvature="0" />
    <path
       transform="translate(235.00431,-114.69777)"
       d="m 91.438892,414.17743 c 0,10.30855 -8.35673,18.66528 -18.665279,18.66528 -10.308549,0 -18.665279,-8.35673 -18.665279,-18.66528 0,-10.30855 8.35673,-18.66528 18.665279,-18.66528 10.308549,0 18.665279,8.35673 18.665279,18.66528 z"
       sodipodi:ry="18.665279"
       sodipodi:rx="18.665279"
       sodipodi:cy="414.17743"
       sodipodi:cx="72.773613"
       id="path3767"
       style="color:#000000;fill:#d2c700;fill-opacity:1;stroke:#000000;stroke-width:2;stroke-linecap:square;stroke-linejoin:round;stroke-miterlimit:4;stroke-opacity:1;stroke-dasharray:none;stroke-dashoffset:0;marker:none;visibility:visible;display:inline;overflow:visible;enable-background:accumulate"
       sodipodi:type="arc" />
    <text
       transform="translate(180.98375,276.47279)"
       sodipodi:linespacing="125%"
       id="text3602"
       y="83.450371"
       x="17.874264"
       style="font-size:11px;font-style:normal;font-variant:normal;font-weight:normal;font-stretch:normal;text-align:start;line-height:125%;letter-spacing:0px;word-spacing:0px;writing-mode:lr-tb;text-anchor:start;fill:#000000;fill-opacity:1;stroke:none;font-family:Sans;-inkscape-font-specification:Sans"
       xml:space="preserve"><tspan
         y="83.450371"
         x="17.874264"
         id="tspan3604"
         sodipodi:role="line" /></text>
    <g
       id="g6773" />
    <path
       style="font-style:normal;font-variant:normal;font-weight:normal;font-stretch:normal;letter-spacing:normal;word-spacing:normal;text-anchor:start;fill:#000000;stroke:#000000;stroke-width:0.5;stroke-linecap:butt;stroke-linejoin:miter;stroke-miterlimit:10.43299961;stroke-opacity:1;stroke-dasharray:none;stroke-dashoffset:0"
       inkscape:connector-curvature="0"
       d="m 311.52538,295.14409 0.003,-0.0133 0.003,-0.01 0.003,-0.0199 0.007,-0.0166 0.003,-0.0199 0.003,-0.0166 0.007,-0.0133 0.003,-0.0166 0.003,-0.0133 0.003,-0.0133 0,-0.0133 0.003,-0.0133 0.003,-0.0133 0.003,-0.01 0,-0.01 0.003,-0.01 0,-0.01 0.003,-0.01 0,-0.01 0.003,-0.0166 0,-0.0199 0,-0.0166 0,-0.0166 0.003,-0.0166 0,-0.01 0,-0.01 0,-0.01 0,-0.01 c 0,-0.3016 -0.22868,-0.44743 -0.47725,-0.44743 -0.16572,0 -0.43086,0.0994 -0.58,0.348 -0.0332,0.0829 -0.16572,0.58995 -0.22869,0.89155 -0.11931,0.42754 -0.232,0.87497 -0.33143,1.31908 l -0.74571,2.97291 c -0.063,0.24858 -0.77223,1.40195 -1.86263,1.40195 -0.84183,0 -1.02743,-0.72252 -1.02743,-1.33566 0,-0.75897 0.28503,-1.7864 0.84514,-3.23474 0.26515,-0.67943 0.33143,-0.86172 0.33143,-1.19314 0,-0.73909 -0.52697,-1.34892 -1.35554,-1.34892 -1.57097,0 -2.1808,2.3896 -2.1808,2.54206 0,0.16571 0.16571,0.16571 0.20217,0.16571 0.16571,0 0.17897,-0.0365 0.26183,-0.3016 0.44743,-1.5544 1.10366,-2.04491 1.66708,-2.04491 0.13258,0 0.41429,0 0.41429,0.52697 0,0.41429 -0.16571,0.83851 -0.28171,1.15669 -0.65955,1.74994 -0.96115,2.6912 -0.96115,3.47005 0,1.46492 1.044,1.96206 2.01509,1.96206 0.6496,0 1.2064,-0.28171 1.66708,-0.7424 -0.21211,0.85509 -0.40765,1.66709 -1.07051,2.54537 -0.43086,0.5568 -1.05726,1.04069 -1.81623,1.04069 -0.22868,0 -0.9744,-0.053 -1.25611,-0.696 0.26514,0 0.48388,0 0.70925,-0.20217 0.16572,-0.14252 0.33143,-0.36126 0.33143,-0.6728 0,-0.51372 -0.44411,-0.58 -0.60983,-0.58 -0.37782,0 -0.928,0.26514 -0.928,1.07382 0,0.82858 0.73246,1.4384 1.75326,1.4384 1.70354,0 3.40046,-1.508 3.86777,-3.37062 z"
       id="path6922" />
    <g
       id="g8219"
       style="stroke-width:0.5;stroke-miterlimit:10.43299961;stroke-dasharray:none"
       transform="translate(120.68232,343.53508)">
      <path
         style="font-style:normal;font-variant:normal;font-weight:normal;font-stretch:normal;letter-spacing:normal;word-spacing:normal;text-anchor:start;fill:#000000;stroke:#000000;stroke-width:0.5;stroke-linecap:butt;stroke-linejoin:miter;stroke-miterlimit:10.43299961;stroke-opacity:1;stroke-dasharray:none;stroke-dashoffset:0"
         inkscape:connector-curvature="0"
         d="m 100.60183,47.275886 0.007,-0.03314 0.007,-0.03646 0.01,-0.03977 0.01,-0.03646 0.01,-0.03977 0.01,-0.03977 0.0199,-0.08286 0.0199,-0.08286 0.0199,-0.08286 0.0199,-0.07954 0.0199,-0.08286 0.01,-0.03646 0.01,-0.03977 0.01,-0.03646 0.007,-0.03646 0.01,-0.03314 0.007,-0.03314 0.007,-0.03314 0.007,-0.02983 0.007,-0.02651 0.007,-0.02651 0.003,-0.0232 0.003,-0.01989 0.003,-0.01989 0.003,-0.01657 0,-0.01326 0.003,-0.0099 c 0,-0.3016 -0.23531,-0.447429 -0.48389,-0.447429 -0.19554,0 -0.490511,0.129258 -0.606511,0.460686 -0.04971,0.116 -0.828571,3.267886 -0.941257,3.698743 -0.119314,0.497143 -0.149143,0.792114 -0.149143,1.093714 0,0.178972 0,0.212115 0.01326,0.294972 -0.377828,0.874971 -0.874971,1.385371 -1.514628,1.385371 -1.3224,0 -1.3224,-1.219657 -1.3224,-1.501371 0,-0.526972 0.08286,-1.173257 0.861714,-3.204915 0.178972,-0.490514 0.2784,-0.725828 0.2784,-1.057257 0,-0.739085 -0.543543,-1.348914 -1.355543,-1.348914 -1.570971,0 -2.1808,2.3896 -2.1808,2.542057 0,0.165714 0.165715,0.165714 0.202172,0.165714 0.165714,0 0.178971,-0.03646 0.261828,-0.3016 0.447429,-1.5312 1.087086,-2.044914 1.667086,-2.044914 0.145829,0 0.414286,0.01657 0.414286,0.543543 0,0.414286 -0.1856,0.874971 -0.298286,1.153371 -0.725829,1.9488 -0.921371,2.711086 -0.921371,3.337486 0,1.501372 1.103657,2.081372 2.339885,2.081372 0.285029,0 1.057257,0 1.720115,-1.156686 0.427542,1.057257 1.567653,1.156686 2.064793,1.156686 1.23955,0 1.96206,-1.040686 2.39292,-2.031658 0.56011,-1.289257 1.08708,-3.499885 1.08708,-4.292 0,-0.911428 -0.44411,-1.153371 -0.72582,-1.153371 -0.41429,0 -0.82195,0.427543 -0.82195,0.792114 0,0.212115 0.0994,0.308229 0.24195,0.444115 0.18228,0.182285 0.59657,0.609828 0.59657,1.401942 0,0.560115 -0.47726,2.1808 -0.9048,3.019315 -0.43086,0.874971 -1.01086,1.454971 -1.81955,1.454971 -0.77554,0 -1.222965,-0.497143 -1.222965,-1.431771 0,-0.467315 0.116,-0.981029 0.182286,-1.2064 z"
         id="path8100" />
      <path
         style="font-style:normal;font-variant:normal;font-weight:normal;font-stretch:normal;letter-spacing:normal;word-spacing:normal;text-anchor:start;fill:#000000;stroke:#000000;stroke-width:0.5;stroke-linecap:butt;stroke-linejoin:miter;stroke-miterlimit:10.43299961;stroke-opacity:1;stroke-dasharray:none;stroke-dashoffset:0"
         inkscape:connector-curvature="0"
         d="m 110.74354,51.657372 0,-0.235314 -0.007,-0.225372 -0.01,-0.218743 -0.0133,-0.212114 -0.0199,-0.205486 -0.0232,-0.198857 -0.0298,-0.188914 -0.0365,-0.1856 -0.0431,-0.182286 -0.0497,-0.175657 -0.0563,-0.169028 -0.063,-0.165715 -0.0696,-0.1624 -0.0795,-0.159085 -0.0862,-0.155772 -0.0464,-0.07623 -0.0497,-0.07623 c -0.35794,-0.5336 -1.07052,-0.994286 -1.99852,-0.994286 v 0.3248 c 0.6264,0 1.22629,0.377829 1.43509,1.050629 0.1856,0.623086 0.19554,1.454971 0.19554,2.462514 0,0.851772 0,1.706857 -0.14914,2.432686 -0.232,1.050628 -1.01417,1.305828 -1.48149,1.305828 h 0 c -0.52697,0 -1.23291,-0.311542 -1.46491,-1.259428 -0.1624,-0.679429 -0.1624,-1.627314 -0.1624,-2.479086 0,-0.845143 0,-1.726743 0.17234,-2.356457 0.24195,-0.911429 0.98435,-1.156686 1.45497,-1.156686 v -0.3248 c -2.67794,0 -2.67794,3.151886 -2.67794,3.987086 0,0.828571 0,3.914171 2.67794,3.914171 2.68126,0 2.68126,-3.0856 2.68126,-3.914171 z"
         id="path8102" />
    </g>
    <g
       id="g8223"
       style="stroke-width:0.5;stroke-miterlimit:10.43299961;stroke-dasharray:none"
       transform="translate(138.43114,343.65065)">
      <path
         style="font-style:normal;font-variant:normal;font-weight:normal;font-stretch:normal;letter-spacing:normal;word-spacing:normal;text-anchor:start;fill:#000000;stroke:#000000;stroke-width:0.5;stroke-linecap:butt;stroke-linejoin:miter;stroke-miterlimit:10.43299961;stroke-opacity:1;stroke-dasharray:none;stroke-dashoffset:0"
         inkscape:connector-curvature="0"
         d="m 119.8512,47.275886 0.007,-0.03314 0.01,-0.03646 0.007,-0.03977 0.01,-0.03646 0.01,-0.03977 0.01,-0.03977 0.0199,-0.08286 0.0199,-0.08286 0.0199,-0.08286 0.0232,-0.07954 0.0199,-0.08286 0.007,-0.03646 0.01,-0.03977 0.01,-0.03646 0.01,-0.03646 0.007,-0.03314 0.007,-0.03314 0.01,-0.03314 0.003,-0.02983 0.007,-0.02651 0.007,-0.02651 0.003,-0.0232 0.007,-0.01989 0,-0.01989 0.003,-0.01657 0.003,-0.01326 0,-0.0099 c 0,-0.3016 -0.23531,-0.447429 -0.48389,-0.447429 -0.19554,0 -0.49051,0.129258 -0.6032,0.460686 -0.053,0.116 -0.82857,3.267886 -0.94457,3.698743 -0.11931,0.497143 -0.14914,0.792114 -0.14914,1.093714 0,0.178972 0,0.212115 0.0166,0.294972 -0.37783,0.874971 -0.87497,1.385371 -1.51794,1.385371 -1.3224,0 -1.3224,-1.219657 -1.3224,-1.501371 0,-0.526972 0.0829,-1.173257 0.86171,-3.204915 0.17897,-0.490514 0.2784,-0.725828 0.2784,-1.057257 0,-0.739085 -0.54354,-1.348914 -1.35554,-1.348914 -1.57097,0 -2.1808,2.3896 -2.1808,2.542057 0,0.165714 0.16571,0.165714 0.20217,0.165714 0.16572,0 0.18229,-0.03646 0.26514,-0.3016 0.44412,-1.5312 1.08709,-2.044914 1.66709,-2.044914 0.14251,0 0.41429,0.01657 0.41429,0.543543 0,0.414286 -0.18892,0.874971 -0.3016,1.153371 -0.72583,1.9488 -0.92138,2.711086 -0.92138,3.337486 0,1.501372 1.10366,2.081372 2.33989,2.081372 0.28503,0 1.05726,0 1.72011,-1.156686 0.43086,1.057257 1.56766,1.156686 2.0648,1.156686 1.23955,0 1.96538,-1.040686 2.39292,-2.031658 0.56011,-1.289257 1.08708,-3.499885 1.08708,-4.292 0,-0.911428 -0.44411,-1.153371 -0.72251,-1.153371 -0.41429,0 -0.82526,0.427543 -0.82526,0.792114 0,0.212115 0.0994,0.308229 0.24526,0.444115 0.17897,0.182285 0.59326,0.609828 0.59326,1.401942 0,0.560115 -0.47395,2.1808 -0.9048,3.019315 -0.43086,0.874971 -1.01086,1.454971 -1.81955,1.454971 -0.77554,0 -1.21965,-0.497143 -1.21965,-1.431771 0,-0.467315 0.11268,-0.981029 0.17897,-1.2064 z"
         id="path8104" />
      <path
         style="font-style:normal;font-variant:normal;font-weight:normal;font-stretch:normal;letter-spacing:normal;word-spacing:normal;text-anchor:start;fill:#000000;stroke:#000000;stroke-width:0.5;stroke-linecap:butt;stroke-linejoin:miter;stroke-miterlimit:10.43299961;stroke-opacity:1;stroke-dasharray:none;stroke-dashoffset:0"
         inkscape:connector-curvature="0"
         d="m 127.9016,47.995086 0,-0.01326 0,-0.01326 0,-0.01657 0,-0.01326 0,-0.0099 0,-0.01326 0,-0.01326 0,-0.0099 -0.003,-0.01326 0,-0.0099 0,-0.0099 0,-0.0099 0,-0.0099 -0.003,-0.0099 0,-0.0099 -0.003,-0.0066 0,-0.0099 0,-0.0066 -0.003,-0.0099 0,-0.0066 -0.007,-0.01326 -0.003,-0.01326 -0.007,-0.0099 -0.007,-0.0099 -0.007,-0.0099 -0.007,-0.0099 -0.01,-0.0066 -0.01,-0.0066 -0.0133,-0.0066 -0.01,-0.0033 -0.0133,-0.0033 -0.0166,-0.0066 -0.007,0 -0.01,0 -0.007,-0.0033 -0.01,0 -0.01,-0.0033 -0.007,0 -0.01,0 -0.01,0 -0.0133,0 -0.01,-0.0033 -0.01,0 -0.0133,0 -0.0133,0 -0.01,0 -0.0133,0 -0.0132,0 -0.0133,0 -0.0166,0 -0.0133,0 -0.0166,0 c -0.73909,0.729143 -1.7864,0.739086 -2.26366,0.739086 v 0.414286 c 0.28172,0 1.044,0 1.67372,-0.321486 v 5.889486 c 0,0.384457 0,0.5336 -1.15338,0.5336 h -0.43748 v 0.414285 c 0.2088,-0.0099 1.62731,-0.0464 2.05817,-0.0464 0.35794,0 1.81291,0.03646 2.0648,0.0464 v -0.414285 h -0.43749 c -1.15668,0 -1.15668,-0.149143 -1.15668,-0.5336 z"
         id="path8106" />
    </g>
    <g
       transform="translate(-2.0239259e-6,0)"
       id="g8872">
      <path
         id="path8318"
         d="m 394.54116,425.82906 0.01,-0.0431 0.0133,-0.0497 0.0133,-0.053 0.0166,-0.0597 0.0166,-0.063 0.0199,-0.0696 0.0199,-0.0729 0.0265,-0.0729 0.0265,-0.0762 0.0265,-0.0795 0.0331,-0.0829 0.0331,-0.0795 0.0365,-0.0829 0.0398,-0.0829 0.0431,-0.0829 0.0464,-0.0829 0.0497,-0.0795 0.0497,-0.0796 0.0563,-0.0762 0.0597,-0.0729 0.0597,-0.0729 0.0663,-0.0663 0.0696,-0.063 0.0729,-0.0597 0.0795,-0.053 0.0795,-0.0464 0.0431,-0.0232 0.0431,-0.0199 0.0431,-0.0166 0.0431,-0.0166 0.0464,-0.0166 0.0497,-0.0133 0.0464,-0.01 0.0497,-0.01 0.0497,-0.007 0.053,-0.007 0.053,-0.003 0.053,0 c 0.0829,0 0.47725,0 0.82194,0.21211 -0.46069,0.0829 -0.79211,0.49715 -0.79211,0.89155 0,0.26182 0.18228,0.58 0.6264,0.58 0.36457,0 0.89154,-0.29498 0.89154,-0.95783 0,-0.86172 -0.9744,-1.08709 -1.5312,-1.08709 -0.95783,0 -1.53783,0.87497 -1.73669,1.2528 -0.41428,-1.08708 -1.30583,-1.2528 -1.77977,-1.2528 -1.72011,0 -2.66137,2.12777 -2.66137,2.54206 0,0.16571 0.16571,0.16571 0.20217,0.16571 0.12926,0 0.17897,-0.0365 0.21212,-0.18228 0.5568,-1.74995 1.65051,-2.16423 2.21062,-2.16423 0.31486,0 0.89155,0.14583 0.89155,1.10366 0,0.5104 -0.28172,1.62068 -0.89155,3.93074 -0.26514,1.02411 -0.83851,1.7168 -1.57097,1.7168 -0.0961,0 -0.47394,0 -0.82194,-0.21543 0.41429,-0.0795 0.77554,-0.42423 0.77554,-0.89154 0,-0.44412 -0.36125,-0.57337 -0.60983,-0.57337 -0.49714,0 -0.91142,0.42754 -0.91142,0.95782 0,0.75566 0.82857,1.08709 1.5544,1.08709 1.0904,0 1.68034,-1.15669 1.73337,-1.2528 0.19554,0.60983 0.79211,1.2528 1.78308,1.2528 1.70355,0 2.6448,-2.12777 2.6448,-2.54206 0,-0.16571 -0.14914,-0.16571 -0.20217,-0.16571 -0.14583,0 -0.18228,0.0663 -0.21211,0.17897 -0.54355,1.76651 -1.66709,2.16423 -2.19737,2.16423 -0.64629,0 -0.90812,-0.52697 -0.90812,-1.0904 0,-0.36457 0.0961,-0.72583 0.28172,-1.45166 z"
         inkscape:connector-curvature="0"
         style="font-style:normal;font-variant:normal;font-weight:normal;font-stretch:normal;letter-spacing:normal;word-spacing:normal;text-anchor:start;fill:#000000;stroke:#000000;stroke-width:0.5;stroke-linecap:butt;stroke-linejoin:miter;stroke-miterlimit:10.43299961;stroke-opacity:1;stroke-dasharray:none;stroke-dashoffset:0" />
      <path
         id="path8320"
         d="m 399.86059,432.55706 -0.003,0.0133 -0.007,0.0166 -0.003,0.0133 -0.007,0.0166 -0.003,0.0166 -0.007,0.0199 -0.003,0.0166 -0.003,0.0166 -0.01,0.0365 -0.01,0.0365 -0.01,0.0398 -0.01,0.0331 -0.003,0.0199 -0.003,0.0166 -0.003,0.0166 -0.003,0.0166 -0.003,0.0166 -0.003,0.0133 -0.003,0.0166 -0.003,0.0133 -0.003,0.01 -0.003,0.0133 0,0.01 -0.003,0.01 0,0.007 0,0.007 0,0.003 0,0.003 0,0.003 -0.003,0 c 0,0.2552 0.2088,0.36789 0.3944,0.36789 0.2088,0 0.38777,-0.14914 0.45074,-0.25189 0.0563,-0.10605 0.14914,-0.47394 0.2088,-0.71588 0.0563,-0.21875 0.17897,-0.75235 0.25189,-1.04069 0.0696,-0.2552 0.1392,-0.50708 0.19885,-0.77223 0.12263,-0.47725 0.14915,-0.56343 0.48058,-1.04068 0.3248,-0.46069 0.86834,-1.06057 1.73337,-1.06057 0.66948,0 0.67943,0.58994 0.67943,0.80868 0,0.69269 -0.49052,1.972 -0.67943,2.4592 -0.12926,0.3248 -0.17566,0.42754 -0.17566,0.6264 0,0.60983 0.51371,0.98766 1.09703,0.98766 1.15668,0 1.66377,-1.58754 1.66377,-1.76652 0,-0.14914 -0.14914,-0.14914 -0.18229,-0.14914 -0.16571,0 -0.17565,0.0663 -0.22205,0.19554 -0.26515,0.92469 -0.76229,1.39863 -1.22297,1.39863 -0.24195,0 -0.28835,-0.15908 -0.28835,-0.40434 0,-0.26183 0.0564,-0.41429 0.26515,-0.93463 0.1392,-0.35794 0.61645,-1.58091 0.61645,-2.2272 0,-1.12354 -0.89154,-1.31577 -1.50468,-1.31577 -0.95783,0 -1.60412,0.58331 -1.95212,1.04731 -0.0829,-0.79542 -0.75897,-1.04731 -1.23623,-1.04731 -0.49714,0 -0.76228,0.35794 -0.91142,0.61977 -0.2552,0.42754 -0.41429,1.0904 -0.41429,1.14674 0,0.14915 0.15909,0.14915 0.19554,0.14915 0.1624,0 0.17235,-0.0365 0.2552,-0.348 0.16903,-0.68275 0.3944,-1.24617 0.84515,-1.24617 0.29828,0 0.37782,0.25188 0.37782,0.56342 0,0.22206 -0.10605,0.64629 -0.18891,0.95783 -0.0762,0.31486 -0.18891,0.7888 -0.25189,1.04069 z"
         inkscape:connector-curvature="0"
         style="font-style:normal;font-variant:normal;font-weight:normal;font-stretch:normal;letter-spacing:normal;word-spacing:normal;text-anchor:start;fill:#000000;stroke:#000000;stroke-width:0.5;stroke-linecap:butt;stroke-linejoin:miter;stroke-miterlimit:10.43299961;stroke-opacity:1;stroke-dasharray:none;stroke-dashoffset:0" />
    </g>
    <path
       style="font-style:normal;font-variant:normal;font-weight:normal;font-stretch:normal;letter-spacing:normal;word-spacing:normal;text-anchor:start;fill:#000000;stroke:#000000;stroke-width:0.5;stroke-linecap:butt;stroke-linejoin:miter;stroke-miterlimit:10.43299961;stroke-opacity:1;stroke-dasharray:none;stroke-dashoffset:0"
       inkscape:connector-curvature="0"
       d="m 304.90617,394.11098 0,-0.0431 -0.003,-0.0464 -0.007,-0.0431 -0.007,-0.0431 -0.01,-0.0398 -0.0133,-0.0431 -0.0132,-0.0398 -0.0166,-0.0398 -0.0166,-0.0398 -0.0199,-0.0365 -0.0199,-0.0365 -0.0232,-0.0365 -0.0232,-0.0331 -0.0265,-0.0331 -0.0265,-0.0331 -0.0298,-0.0298 -0.0298,-0.0298 -0.0331,-0.0265 -0.0331,-0.0265 -0.0331,-0.0232 -0.0365,-0.0232 -0.0365,-0.0232 -0.0365,-0.0199 -0.0398,-0.0166 -0.0398,-0.0166 -0.0398,-0.0133 -0.0431,-0.0132 -0.0431,-0.01 -0.0431,-0.007 -0.0431,-0.007 -0.0431,-0.003 -0.0464,0 c -0.47725,0 -0.87497,0.39772 -0.87497,0.87497 0,0.47726 0.39772,0.87497 0.87497,0.87497 0.48389,0 0.87497,-0.39771 0.87497,-0.87497 z"
       id="path8322" />
    <path
       style="font-style:normal;font-variant:normal;font-weight:normal;font-stretch:normal;letter-spacing:normal;word-spacing:normal;text-anchor:start;fill:#000000;stroke:#000000;stroke-width:0.5;stroke-linecap:butt;stroke-linejoin:miter;stroke-miterlimit:10.43299961;stroke-opacity:1;stroke-dasharray:none;stroke-dashoffset:0"
       inkscape:connector-curvature="0"
       d="m 320.22412,394.11098 -0.003,-0.0431 -0.003,-0.0464 -0.003,-0.0431 -0.01,-0.0431 -0.01,-0.0398 -0.01,-0.0431 -0.0133,-0.0398 -0.0166,-0.0398 -0.0166,-0.0398 -0.0199,-0.0365 -0.0232,-0.0365 -0.0199,-0.0365 -0.0265,-0.0331 -0.0265,-0.0331 -0.0265,-0.0331 -0.0298,-0.0298 -0.0298,-0.0298 -0.0331,-0.0265 -0.0331,-0.0265 -0.0331,-0.0232 -0.0365,-0.0232 -0.0365,-0.0232 -0.0365,-0.0199 -0.0398,-0.0166 -0.0398,-0.0166 -0.0398,-0.0133 -0.0398,-0.0132 -0.0431,-0.01 -0.0431,-0.007 -0.0431,-0.007 -0.0464,-0.003 -0.0431,0 c -0.47726,0 -0.87498,0.39772 -0.87498,0.87497 0,0.47726 0.39772,0.87497 0.87498,0.87497 0.48057,0 0.87497,-0.39771 0.87497,-0.87497 z"
       id="path8324" />
    <path
       style="font-style:normal;font-variant:normal;font-weight:normal;font-stretch:normal;letter-spacing:normal;word-spacing:normal;text-anchor:start;fill:#000000;stroke:#000000;stroke-width:0.5;stroke-linecap:butt;stroke-linejoin:miter;stroke-miterlimit:10.43299961;stroke-opacity:1;stroke-dasharray:none;stroke-dashoffset:0"
       inkscape:connector-curvature="0"
       d="m 335.54206,394.11098 -0.003,-0.0431 -0.003,-0.0464 -0.003,-0.0431 -0.01,-0.0431 -0.01,-0.0398 -0.01,-0.0431 -0.0133,-0.0398 -0.0166,-0.0398 -0.0199,-0.0398 -0.0166,-0.0365 -0.0232,-0.0365 -0.0232,-0.0365 -0.0232,-0.0331 -0.0265,-0.0331 -0.0265,-0.0331 -0.0298,-0.0298 -0.0298,-0.0298 -0.0331,-0.0265 -0.0331,-0.0265 -0.0331,-0.0232 -0.0365,-0.0232 -0.0365,-0.0232 -0.0365,-0.0199 -0.0398,-0.0166 -0.0398,-0.0166 -0.0398,-0.0133 -0.0431,-0.0132 -0.0398,-0.01 -0.0431,-0.007 -0.0464,-0.007 -0.0431,-0.003 -0.0431,0 c -0.47726,0 -0.87829,0.39772 -0.87829,0.87497 0,0.47726 0.40103,0.87497 0.87829,0.87497 0.48057,0 0.87497,-0.39771 0.87497,-0.87497 z"
       id="path8326" />
    <path
       id="path8447"
       d="m 302.90617,431.32771 0,-0.0431 -0.003,-0.0464 -0.007,-0.0431 -0.007,-0.0431 -0.01,-0.0398 -0.0133,-0.0431 -0.0132,-0.0398 -0.0166,-0.0398 -0.0166,-0.0398 -0.0199,-0.0365 -0.0199,-0.0365 -0.0232,-0.0365 -0.0232,-0.0331 -0.0265,-0.0331 -0.0265,-0.0331 -0.0298,-0.0298 -0.0298,-0.0298 -0.0331,-0.0265 -0.0331,-0.0265 -0.0331,-0.0232 -0.0365,-0.0232 -0.0365,-0.0232 -0.0365,-0.0199 -0.0398,-0.0166 -0.0398,-0.0166 -0.0398,-0.0133 -0.0431,-0.0132 -0.0431,-0.01 -0.0431,-0.007 -0.0431,-0.007 -0.0431,-0.003 -0.0464,0 c -0.47725,0 -0.87497,0.39772 -0.87497,0.87497 0,0.47726 0.39772,0.87497 0.87497,0.87497 0.48389,0 0.87497,-0.39771 0.87497,-0.87497 z"
       inkscape:connector-curvature="0"
       style="font-style:normal;font-variant:normal;font-weight:normal;font-stretch:normal;letter-spacing:normal;word-spacing:normal;text-anchor:start;fill:#000000;stroke:#000000;stroke-width:0.5;stroke-linecap:butt;stroke-linejoin:miter;stroke-miterlimit:10.43299961;stroke-opacity:1;stroke-dasharray:none;stroke-dashoffset:0" />
    <path
       id="path8449"
       d="m 326.22412,431.32771 -0.003,-0.0431 -0.003,-0.0464 -0.003,-0.0431 -0.01,-0.0431 -0.01,-0.0398 -0.01,-0.0431 -0.0133,-0.0398 -0.0166,-0.0398 -0.0166,-0.0398 -0.0199,-0.0365 -0.0232,-0.0365 -0.0199,-0.0365 -0.0265,-0.0331 -0.0265,-0.0331 -0.0265,-0.0331 -0.0298,-0.0298 -0.0298,-0.0298 -0.0331,-0.0265 -0.0331,-0.0265 -0.0331,-0.0232 -0.0365,-0.0232 -0.0365,-0.0232 -0.0365,-0.0199 -0.0398,-0.0166 -0.0398,-0.0166 -0.0398,-0.0133 -0.0398,-0.0132 -0.0431,-0.01 -0.0431,-0.007 -0.0431,-0.007 -0.0464,-0.003 -0.0431,0 c -0.47726,0 -0.87498,0.39772 -0.87498,0.87497 0,0.47726 0.39772,0.87497 0.87498,0.87497 0.48057,0 0.87497,-0.39771 0.87497,-0.87497 z"
       inkscape:connector-curvature="0"
       style="font-style:normal;font-variant:normal;font-weight:normal;font-stretch:normal;letter-spacing:normal;word-spacing:normal;text-anchor:start;fill:#000000;stroke:#000000;stroke-width:0.5;stroke-linecap:butt;stroke-linejoin:miter;stroke-miterlimit:10.43299961;stroke-opacity:1;stroke-dasharray:none;stroke-dashoffset:0" />
    <path
       id="path8451"
       d="m 351.54206,431.32771 -0.003,-0.0431 -0.003,-0.0464 -0.003,-0.0431 -0.01,-0.0431 -0.01,-0.0398 -0.01,-0.0431 -0.0133,-0.0398 -0.0166,-0.0398 -0.0199,-0.0398 -0.0166,-0.0365 -0.0232,-0.0365 -0.0232,-0.0365 -0.0232,-0.0331 -0.0265,-0.0331 -0.0265,-0.0331 -0.0298,-0.0298 -0.0298,-0.0298 -0.0331,-0.0265 -0.0331,-0.0265 -0.0331,-0.0232 -0.0365,-0.0232 -0.0365,-0.0232 -0.0365,-0.0199 -0.0398,-0.0166 -0.0398,-0.0166 -0.0398,-0.0133 -0.0431,-0.0132 -0.0398,-0.01 -0.0431,-0.007 -0.0464,-0.007 -0.0431,-0.003 -0.0431,0 c -0.47726,0 -0.87829,0.39772 -0.87829,0.87497 0,0.47726 0.40103,0.87497 0.87829,0.87497 0.48057,0 0.87497,-0.39771 0.87497,-0.87497 z"
       inkscape:connector-curvature="0"
       style="font-style:normal;font-variant:normal;font-weight:normal;font-stretch:normal;letter-spacing:normal;word-spacing:normal;text-anchor:start;fill:#000000;stroke:#000000;stroke-width:0.5;stroke-linecap:butt;stroke-linejoin:miter;stroke-miterlimit:10.43299961;stroke-opacity:1;stroke-dasharray:none;stroke-dashoffset:0" />
    <g
       id="g8453"
       transform="translate(-190,-72)">
      <path
         style="font-style:normal;font-variant:normal;font-weight:normal;font-stretch:normal;letter-spacing:normal;word-spacing:normal;text-anchor:start;fill:#000000;stroke:#000000;stroke-width:0.5;stroke-linecap:butt;stroke-linejoin:miter;stroke-miterlimit:10.43299961;stroke-opacity:1;stroke-dasharray:none;stroke-dashoffset:0"
         inkscape:connector-curvature="0"
         d="m 498.90617,425.32771 0,-0.0431 -0.003,-0.0464 -0.007,-0.0431 -0.007,-0.0431 -0.01,-0.0398 -0.0133,-0.0431 -0.0132,-0.0398 -0.0166,-0.0398 -0.0166,-0.0398 -0.0199,-0.0365 -0.0199,-0.0365 -0.0232,-0.0365 -0.0232,-0.0331 -0.0265,-0.0331 -0.0265,-0.0331 -0.0298,-0.0298 -0.0298,-0.0298 -0.0331,-0.0265 -0.0331,-0.0265 -0.0331,-0.0232 -0.0365,-0.0232 -0.0365,-0.0232 -0.0365,-0.0199 -0.0398,-0.0166 -0.0398,-0.0166 -0.0398,-0.0133 -0.0431,-0.0132 -0.0431,-0.01 -0.0431,-0.007 -0.0431,-0.007 -0.0431,-0.003 -0.0464,0 c -0.47725,0 -0.87497,0.39772 -0.87497,0.87497 0,0.47726 0.39772,0.87497 0.87497,0.87497 0.48389,0 0.87497,-0.39771 0.87497,-0.87497 z"
         id="path8455" />
      <path
         style="font-style:normal;font-variant:normal;font-weight:normal;font-stretch:normal;letter-spacing:normal;word-spacing:normal;text-anchor:start;fill:#000000;stroke:#000000;stroke-width:0.5;stroke-linecap:butt;stroke-linejoin:miter;stroke-miterlimit:10.43299961;stroke-opacity:1;stroke-dasharray:none;stroke-dashoffset:0"
         inkscape:connector-curvature="0"
         d="m 506.22412,425.32771 -0.003,-0.0431 -0.003,-0.0464 -0.003,-0.0431 -0.01,-0.0431 -0.01,-0.0398 -0.01,-0.0431 -0.0133,-0.0398 -0.0166,-0.0398 -0.0166,-0.0398 -0.0199,-0.0365 -0.0232,-0.0365 -0.0199,-0.0365 -0.0265,-0.0331 -0.0265,-0.0331 -0.0265,-0.0331 -0.0298,-0.0298 -0.0298,-0.0298 -0.0331,-0.0265 -0.0331,-0.0265 -0.0331,-0.0232 -0.0365,-0.0232 -0.0365,-0.0232 -0.0365,-0.0199 -0.0398,-0.0166 -0.0398,-0.0166 -0.0398,-0.0133 -0.0398,-0.0132 -0.0431,-0.01 -0.0431,-0.007 -0.0431,-0.007 -0.0464,-0.003 -0.0431,0 c -0.47726,0 -0.87498,0.39772 -0.87498,0.87497 0,0.47726 0.39772,0.87497 0.87498,0.87497 0.48057,0 0.87497,-0.39771 0.87497,-0.87497 z"
         id="path8457" />
      <path
         style="font-style:normal;font-variant:normal;font-weight:normal;font-stretch:normal;letter-spacing:normal;word-spacing:normal;text-anchor:start;fill:#000000;stroke:#000000;stroke-width:0.5;stroke-linecap:butt;stroke-linejoin:miter;stroke-miterlimit:10.43299961;stroke-opacity:1;stroke-dasharray:none;stroke-dashoffset:0"
         inkscape:connector-curvature="0"
         d="m 513.54206,425.32771 -0.003,-0.0431 -0.003,-0.0464 -0.003,-0.0431 -0.01,-0.0431 -0.01,-0.0398 -0.01,-0.0431 -0.0133,-0.0398 -0.0166,-0.0398 -0.0199,-0.0398 -0.0166,-0.0365 -0.0232,-0.0365 -0.0232,-0.0365 -0.0232,-0.0331 -0.0265,-0.0331 -0.0265,-0.0331 -0.0298,-0.0298 -0.0298,-0.0298 -0.0331,-0.0265 -0.0331,-0.0265 -0.0331,-0.0232 -0.0365,-0.0232 -0.0365,-0.0232 -0.0365,-0.0199 -0.0398,-0.0166 -0.0398,-0.0166 -0.0398,-0.0133 -0.0431,-0.0132 -0.0398,-0.01 -0.0431,-0.007 -0.0464,-0.007 -0.0431,-0.003 -0.0431,0 c -0.47726,0 -0.87829,0.39772 -0.87829,0.87497 0,0.47726 0.40103,0.87497 0.87829,0.87497 0.48057,0 0.87497,-0.39771 0.87497,-0.87497 z"
         id="path8459" />
    </g>
    <g
       id="g8554"
       style="stroke-width:0.5;stroke-miterlimit:10.43299961;stroke-dasharray:none"
       transform="translate(122.61136,381.08517)">
      <g
         word-spacing="normal"
         letter-spacing="normal"
         font-size-adjust="none"
         font-stretch="normal"
         font-weight="normal"
         font-variant="normal"
         font-style="normal"
         stroke-miterlimit="10.433"
         xml:space="preserve"
         transform="matrix(0.33142857,0,0,-0.33142857,-58,187.5)"
         id="content"
         style="font-style:normal;font-variant:normal;font-weight:normal;font-stretch:normal;letter-spacing:normal;word-spacing:normal;text-anchor:start;fill:none;stroke:#000000;stroke-width:1.50862074;stroke-linecap:butt;stroke-linejoin:miter;stroke-miterlimit:10.43299961;stroke-opacity:1;stroke-dasharray:none;stroke-dashoffset:0"><path
           id="path8557"
           d="m 470.16,438.09 0,0.05 0,0.06 0,0.05 0,0.05 0,0.05 0,0.05 0,0.04 0,0.05 0,0.04 0,0.04 -0.01,0.04 0,0.04 0,0.04 0,0.03 0,0.04 -0.01,0.03 -0.01,0.07 0,0.06 -0.02,0.05 -0.01,0.05 -0.02,0.05 -0.02,0.04 -0.02,0.04 -0.02,0.03 -0.03,0.03 -0.03,0.03 -0.04,0.03 -0.04,0.02 -0.04,0.02 -0.03,0.01 -0.02,0.01 -0.03,0 -0.02,0.01 -0.03,0.01 -0.03,0 -0.03,0.01 -0.03,0 -0.04,0.01 -0.03,0 -0.04,0 -0.03,0.01 -0.04,0 -0.04,0 -0.05,0 -0.04,0 -0.04,0 -0.05,0.01 -0.05,0 -0.05,0 -0.05,0 -0.05,0 c -3.09,-3.19 -7.47,-3.19 -9.06,-3.19 v -1.55 c 1,0 3.93,0 6.51,1.3 v -25.81 c 0,-1.8 -0.14,-2.39 -4.62,-2.39 h -1.6 v -1.55 c 1.75,0.16 6.08,0.16 8.07,0.16 2,0 6.32,0 8.07,-0.16 v 1.55 h -1.59 c -4.48,0 -4.64,0.54 -4.64,2.39 z"
           style="fill:#000000;stroke-width:1.50862074;stroke-miterlimit:10.43299961;stroke-dasharray:none"
           inkscape:connector-curvature="0" /></g>    </g>
    <g
       transform="translate(219.56454,342.96999)"
       id="g8858">
      <path
         id="path8735"
         d="m 133.61211,47.275886 0.007,-0.03314 0.01,-0.03646 0.007,-0.03977 0.01,-0.03646 0.01,-0.03977 0.01,-0.03977 0.0199,-0.08286 0.0199,-0.08286 0.0199,-0.08286 0.0232,-0.07954 0.0199,-0.08286 0.007,-0.03646 0.01,-0.03977 0.01,-0.03646 0.01,-0.03646 0.007,-0.03314 0.007,-0.03314 0.01,-0.03314 0.003,-0.02983 0.007,-0.02651 0.007,-0.02651 0.003,-0.0232 0.007,-0.01989 0,-0.01989 0.003,-0.01657 0.003,-0.01326 0,-0.0099 c 0,-0.3016 -0.23531,-0.447429 -0.48388,-0.447429 -0.19554,0 -0.49052,0.129258 -0.60652,0.460686 -0.0497,0.116 -0.82857,3.267886 -0.94125,3.698743 -0.11932,0.497143 -0.14915,0.792114 -0.14915,1.093714 0,0.178972 0,0.212115 0.0133,0.294972 -0.37451,0.874971 -0.87166,1.385371 -1.51463,1.385371 -1.3224,0 -1.3224,-1.219657 -1.3224,-1.501371 0,-0.526972 0.0829,-1.173257 0.86172,-3.204915 0.17897,-0.490514 0.2784,-0.725828 0.2784,-1.057257 0,-0.739085 -0.54355,-1.348914 -1.35555,-1.348914 -1.57097,0 -2.1808,2.3896 -2.1808,2.542057 0,0.165714 0.16572,0.165714 0.20218,0.165714 0.16571,0 0.18228,-0.03646 0.26514,-0.3016 0.44411,-1.5312 1.08708,-2.044914 1.66708,-2.044914 0.14252,0 0.41429,0.01657 0.41429,0.543543 0,0.414286 -0.18891,0.874971 -0.3016,1.153371 -0.72583,1.9488 -0.92137,2.711086 -0.92137,3.337486 0,1.501372 1.10366,2.081372 2.33988,2.081372 0.28503,0 1.05726,0 1.72012,-1.156686 0.42754,1.057257 1.56766,1.156686 2.0648,1.156686 1.23954,0 1.96537,-1.040686 2.39291,-2.031658 0.56012,-1.289257 1.08709,-3.499885 1.08709,-4.292 0,-0.911428 -0.44412,-1.153371 -0.72583,-1.153371 -0.41429,0 -0.82194,0.427543 -0.82194,0.792114 0,0.212115 0.0994,0.308229 0.24194,0.444115 0.18229,0.182285 0.59657,0.609828 0.59657,1.401942 0,0.560115 -0.47394,2.1808 -0.9048,3.019315 -0.43086,0.874971 -1.01086,1.454971 -1.81954,1.454971 -0.77554,0 -1.21966,-0.497143 -1.21966,-1.431771 0,-0.467315 0.11269,-0.981029 0.17897,-1.2064 z"
         style="font-style:normal;font-variant:normal;font-weight:normal;font-stretch:normal;letter-spacing:normal;word-spacing:normal;text-anchor:start;fill:#000000;stroke:#000000;stroke-width:0.5;stroke-linecap:butt;stroke-linejoin:miter;stroke-miterlimit:4;stroke-opacity:1;stroke-dasharray:none;stroke-dashoffset:0"
         inkscape:connector-curvature="0" />
      <path
         id="path8737"
         d="m 139.20331,54.613715 -0.003,0.01326 -0.007,0.01657 -0.003,0.01326 -0.003,0.01657 -0.007,0.01657 -0.003,0.01989 -0.007,0.01657 -0.003,0.01657 -0.01,0.03646 -0.01,0.03646 -0.01,0.03977 -0.007,0.03314 -0.007,0.01989 -0.003,0.01657 -0.003,0.01657 -0.003,0.01657 -0.003,0.01657 -0.003,0.01326 -0.003,0.01657 -0.003,0.01326 -0.003,0.0099 0,0.01326 -0.003,0.0099 0,0.0099 -0.003,0.0066 0,0.0066 0,0.0033 0,0.0033 0,0.0033 0,0 c 0,0.2552 0.20548,0.367886 0.39108,0.367886 0.2088,0 0.39109,-0.149143 0.45406,-0.251886 0.0563,-0.106057 0.14914,-0.473942 0.20549,-0.715885 0.0563,-0.218743 0.18228,-0.752343 0.25188,-1.040686 0.0696,-0.2552 0.14252,-0.507086 0.19886,-0.772229 0.12263,-0.477257 0.14914,-0.563428 0.48057,-1.040685 0.32811,-0.460686 0.87166,-1.060572 1.73669,-1.060572 0.66617,0 0.67611,0.589943 0.67611,0.808686 0,0.692686 -0.49051,1.972 -0.67611,2.4592 -0.12926,0.3248 -0.17898,0.427543 -0.17898,0.6264 0,0.609829 0.51372,0.987657 1.10035,0.987657 1.15337,0 1.66045,-1.587543 1.66045,-1.766514 0,-0.149143 -0.14914,-0.149143 -0.17897,-0.149143 -0.16571,0 -0.17897,0.06629 -0.22205,0.195543 -0.26515,0.924686 -0.76229,1.398628 -1.22298,1.398628 -0.24525,0 -0.29165,-0.159085 -0.29165,-0.404342 0,-0.261829 0.0563,-0.414286 0.26514,-0.934629 0.1392,-0.357943 0.61646,-1.580914 0.61646,-2.2272 0,-1.123543 -0.89155,-1.315771 -1.50137,-1.315771 -0.95783,0 -1.60743,0.583314 -1.95212,1.047314 -0.0829,-0.795429 -0.76228,-1.047314 -1.23954,-1.047314 -0.49714,0 -0.76229,0.357942 -0.91143,0.619771 -0.25189,0.427543 -0.41429,1.0904 -0.41429,1.146743 0,0.149143 0.1624,0.149143 0.19886,0.149143 0.15909,0 0.16903,-0.03646 0.25189,-0.348 0.17234,-0.682743 0.3944,-1.246172 0.84514,-1.246172 0.3016,0 0.37783,0.251886 0.37783,0.563429 0,0.222057 -0.10274,0.646286 -0.1856,0.957828 -0.0795,0.314858 -0.19223,0.7888 -0.2552,1.040686 z"
         style="font-style:normal;font-variant:normal;font-weight:normal;font-stretch:normal;letter-spacing:normal;word-spacing:normal;text-anchor:start;fill:#000000;stroke:#000000;stroke-width:0.5;stroke-linecap:butt;stroke-linejoin:miter;stroke-miterlimit:4;stroke-opacity:1;stroke-dasharray:none;stroke-dashoffset:0"
         inkscape:connector-curvature="0" />
      <path
         id="path8739"
         d="m 151.29714,52.727886 h 3.53303 c 0.14914,0 0.42423,0 0.42423,-0.2784 0,-0.285028 -0.26514,-0.285028 -0.42423,-0.285028 h -3.53303 v -3.546286 c 0,-0.152457 0,-0.424229 -0.2784,-0.424229 -0.29166,0 -0.29166,0.261829 -0.29166,0.424229 v 3.546286 h -3.54297 c -0.14914,0 -0.42754,0 -0.42754,0.275085 0,0.288343 0.26183,0.288343 0.42754,0.288343 h 3.54297 v 3.5496 c 0,0.149143 0,0.424229 0.2784,0.424229 0.29166,0 0.29166,-0.265143 0.29166,-0.424229 z"
         style="font-style:normal;font-variant:normal;font-weight:normal;font-stretch:normal;letter-spacing:normal;word-spacing:normal;text-anchor:start;fill:#000000;stroke:#000000;stroke-width:0.5;stroke-linecap:butt;stroke-linejoin:miter;stroke-miterlimit:4;stroke-opacity:1;stroke-dasharray:none;stroke-dashoffset:0"
         inkscape:connector-curvature="0" />
      <path
         id="path8741"
         d="m 159.95737,47.995086 0,-0.01326 0,-0.01326 0,-0.01657 0,-0.01326 0,-0.0099 0,-0.01326 0,-0.01326 -0.003,-0.0099 0,-0.01326 0,-0.0099 0,-0.0099 0,-0.0099 -0.003,-0.0099 0,-0.0099 0,-0.0099 -0.003,-0.0066 0,-0.0099 -0.003,-0.0066 0,-0.0099 -0.003,-0.0066 -0.003,-0.01326 -0.003,-0.01326 -0.007,-0.0099 -0.007,-0.0099 -0.007,-0.0099 -0.01,-0.0099 -0.007,-0.0066 -0.01,-0.0066 -0.0133,-0.0066 -0.01,-0.0033 -0.0133,-0.0033 -0.0166,-0.0066 -0.007,0 -0.01,0 -0.007,-0.0033 -0.01,0 -0.01,-0.0033 -0.01,0 -0.01,0 -0.01,0 -0.01,0 -0.01,-0.0033 -0.0133,0 -0.01,0 -0.0133,0 -0.01,0 -0.0133,0 -0.0132,0 -0.0166,0 -0.0133,0 -0.0133,0 -0.0166,0 c -0.73909,0.729143 -1.7864,0.739086 -2.26366,0.739086 v 0.414286 c 0.28172,0 1.044,0 1.67372,-0.321486 v 5.889486 c 0,0.384457 0,0.5336 -1.15337,0.5336 h -0.43749 v 0.414285 c 0.2088,-0.0099 1.62731,-0.0464 2.05817,-0.0464 0.35463,0 1.81292,0.03646 2.0648,0.0464 v -0.414285 h -0.4408 c -1.15337,0 -1.15337,-0.149143 -1.15337,-0.5336 z"
         style="font-style:normal;font-variant:normal;font-weight:normal;font-stretch:normal;letter-spacing:normal;word-spacing:normal;text-anchor:start;fill:#000000;stroke:#000000;stroke-width:0.5;stroke-linecap:butt;stroke-linejoin:miter;stroke-miterlimit:4;stroke-opacity:1;stroke-dasharray:none;stroke-dashoffset:0"
         inkscape:connector-curvature="0" />
    </g>
    <g
       id="g9070"
       transform="translate(163.37284,377.88357)">
      <g
         style="stroke-width:0.5;stroke-miterlimit:4;stroke-dasharray:none"
         id="g8968">
        <g
           style="font-style:normal;font-variant:normal;font-weight:normal;font-stretch:normal;letter-spacing:normal;word-spacing:normal;text-anchor:start;fill:none;stroke:#000000;stroke-width:1.50862074;stroke-linecap:butt;stroke-linejoin:miter;stroke-miterlimit:4;stroke-opacity:1;stroke-dasharray:none;stroke-dashoffset:0"
           id="g8970"
           transform="matrix(0.33142857,0,0,-0.33142857,-58,187.5)"
           xml:space="preserve"
           stroke-miterlimit="10.433"
           font-style="normal"
           font-variant="normal"
           font-weight="normal"
           font-stretch="normal"
           font-size-adjust="none"
           letter-spacing="normal"
           word-spacing="normal"><path
             style="fill:#000000;stroke-width:1.50862074;stroke-miterlimit:4;stroke-dasharray:none"
             d="m 472.16,421.25 0.03,0.13 0.04,0.15 0.04,0.16 0.04,0.18 0.06,0.19 0.06,0.21 0.06,0.22 0.07,0.22 0.08,0.23 0.09,0.24 0.1,0.25 0.1,0.24 0.11,0.25 0.12,0.25 0.13,0.25 0.14,0.25 0.15,0.24 0.15,0.24 0.17,0.23 0.18,0.22 0.18,0.22 0.2,0.2 0.21,0.19 0.22,0.18 0.23,0.16 0.25,0.14 0.12,0.07 0.13,0.06 0.14,0.05 0.13,0.05 0.14,0.05 0.14,0.04 0.15,0.03 0.15,0.03 0.15,0.02 0.16,0.02 0.16,0.01 0.16,0 c 0.25,0 1.44,0 2.48,-0.64 -1.39,-0.25 -2.39,-1.5 -2.39,-2.69 0,-0.79 0.55,-1.75 1.89,-1.75 1.1,0 2.69,0.89 2.69,2.89 0,2.6 -2.94,3.28 -4.63,3.28 -2.89,0 -4.64,-2.64 -5.23,-3.78 -1.25,3.28 -3.94,3.78 -5.37,3.78 -5.19,0 -8.04,-6.42 -8.04,-7.67 0,-0.5 0.5,-0.5 0.61,-0.5 0.39,0 0.55,0.11 0.64,0.55 1.69,5.28 4.99,6.53 6.68,6.53 0.95,0 2.68,-0.44 2.68,-3.33 0,-1.54 -0.84,-4.89 -2.68,-11.86 -0.8,-3.09 -2.54,-5.18 -4.74,-5.18 -0.3,0 -1.44,0 -2.48,0.65 1.25,0.24 2.34,1.28 2.34,2.69 0,1.34 -1.09,1.73 -1.84,1.73 -1.5,0 -2.75,-1.29 -2.75,-2.89 0,-2.28 2.5,-3.28 4.68,-3.28 3.3,0 5.08,3.49 5.24,3.78 0.59,-1.84 2.39,-3.78 5.37,-3.78 5.14,0 7.99,6.42 7.99,7.67 0,0.5 -0.45,0.5 -0.61,0.5 -0.44,0 -0.55,-0.2 -0.64,-0.54 -1.64,-5.33 -5.03,-6.53 -6.63,-6.53 -1.95,0 -2.75,1.59 -2.75,3.29 0,1.1 0.3,2.19 0.86,4.38 z"
             id="path8972"
             inkscape:connector-curvature="0" /><path
             style="fill:#000000;stroke-width:1.50862074;stroke-miterlimit:4;stroke-dasharray:none"
             d="m 501.95,409.87 -0.01,0.71 -0.02,0.68 -0.03,0.66 -0.04,0.64 -0.06,0.62 -0.07,0.6 -0.09,0.57 -0.11,0.56 -0.13,0.55 -0.15,0.53 -0.17,0.51 -0.19,0.5 -0.21,0.49 -0.24,0.48 -0.26,0.47 -0.14,0.23 -0.15,0.23 c -1.08,1.61 -3.23,3 -6.03,3 v -0.98 c 1.89,0 3.7,-1.14 4.33,-3.17 0.56,-1.88 0.59,-4.39 0.59,-7.43 0,-2.57 0,-5.15 -0.45,-7.34 -0.7,-3.17 -3.06,-3.94 -4.47,-3.94 h 0 c -1.59,0 -3.72,0.94 -4.42,3.8 -0.48,2.05 -0.48,4.91 -0.48,7.48 0,2.55 0,5.21 0.51,7.11 0.74,2.75 2.97,3.49 4.39,3.49 v 0.98 c -8.08,0 -8.08,-9.51 -8.08,-12.03 0,-2.5 0,-11.81 8.08,-11.81 8.1,0 8.1,9.31 8.1,11.81 z"
             id="path8974"
             inkscape:connector-curvature="0" /></g>      </g>
    </g>
  </g>
</svg>
